<svg width="58" height="39" viewBox="0 0 58 39" fill="none" xmlns="http://www.w3.org/2000/svg">
<path d="M0 15C0 6.71573 6.71573 0 15 0H25H35C43.2843 0 50 6.71573 50 15V15C50 23.2843 43.2843 30 35 30H15C6.71573 30 0 23.2843 0 15V15Z" fill="#A1A1A1"/>
<g filter="url(#filter0_d_5_4)">
<path d="M35 27.8322C41.6274 27.8322 47 22.4596 47 15.8322C47 9.20478 41.6274 3.8322 35 3.8322C28.3726 3.8322 23 9.20478 23 15.8322C23 22.4596 28.3726 27.8322 35 27.8322Z" fill="#FEFEFE"/>
<path d="M46.3143 15.8322C46.3143 22.0809 41.2487 27.1465 35 27.1465C28.7513 27.1465 23.6857 22.0809 23.6857 15.8322C23.6857 9.58349 28.7513 4.51791 35 4.51791C41.2487 4.51791 46.3143 9.58349 46.3143 15.8322Z" stroke="black" stroke-opacity="0.07" stroke-width="1.37143"/>
</g>
<defs>
<filter id="filter0_d_5_4" x="20.2571" y="1.08934" width="37.7143" height="37.7143" filterUnits="userSpaceOnUse" color-interpolation-filters="sRGB">
<feFlood flood-opacity="0" result="BackgroundImageFix"/>
<feColorMatrix in="SourceAlpha" type="matrix" values="0 0 0 0 0 0 0 0 0 0 0 0 0 0 0 0 0 0 127 0" result="hardAlpha"/>
<feOffset dx="4.11429" dy="4.11429"/>
<feGaussianBlur stdDeviation="3.42857"/>
<feComposite in2="hardAlpha" operator="out"/>
<feColorMatrix type="matrix" values="0 0 0 0 0 0 0 0 0 0 0 0 0 0 0 0 0 0 0.15 0"/>
<feBlend mode="normal" in2="BackgroundImageFix" result="effect1_dropShadow_5_4"/>
<feBlend mode="normal" in="SourceGraphic" in2="effect1_dropShadow_5_4" result="shape"/>
</filter>
</defs>
</svg>
