<svg width="25" height="25" viewBox="0 0 25 25" fill="none" xmlns="http://www.w3.org/2000/svg">
<path d="M12.5 2.25265C15.8367 2.25265 16.2322 2.26584 17.5504 2.32516C18.7681 2.38119 19.4305 2.58388 19.8705 2.75526C20.4538 2.98266 20.8707 3.25292 21.3073 3.69125C21.7456 4.12794 22.0159 4.54486 22.2416 5.1282C22.413 5.56819 22.6157 6.23064 22.6717 7.44842C22.731 8.76673 22.7442 9.16222 22.7442 12.4992C22.7442 15.8361 22.731 16.2316 22.6717 17.5499C22.6157 18.7694 22.413 19.4302 22.2416 19.8701C22.0142 20.4535 21.744 20.8704 21.3073 21.3071C20.8707 21.7454 20.4538 22.0157 19.8705 22.2414C19.4305 22.4128 18.7681 22.6172 17.5504 22.6715C16.2322 22.7325 15.8367 22.7441 12.5 22.7441C9.16326 22.7441 8.76615 22.7309 7.44958 22.6715C6.23187 22.6155 5.56947 22.4128 5.12951 22.2414C4.5462 22.014 4.12932 21.7438 3.69266 21.3071C3.256 20.8704 2.98412 20.4535 2.75837 19.8701C2.587 19.4302 2.38433 18.7677 2.3283 17.5499C2.26898 16.2316 2.2558 15.8361 2.2558 12.4992C2.2558 9.16222 2.26898 8.76673 2.3283 7.44842C2.38433 6.22899 2.587 5.56819 2.75837 5.1282C2.98576 4.54486 3.256 4.12794 3.69266 3.69125C4.12932 3.25292 4.5462 2.98266 5.12951 2.75526C5.56947 2.58388 6.23187 2.38119 7.44958 2.32516C8.76615 2.26584 9.16161 2.25265 12.5 2.25265ZM12.5 0C9.10559 0 8.68046 0.0148308 7.34742 0.0758024C6.01602 0.136774 5.10809 0.347703 4.31387 0.657505C3.49163 0.977194 2.79462 1.40399 2.09926 2.0994C1.4039 2.79481 0.977129 3.49186 0.657461 4.31415C0.34768 5.11008 0.136765 6.01806 0.0757974 7.3479C0.0148298 8.68104 0 9.10619 0 12.5008C0 15.8955 0.0148298 16.3206 0.0757974 17.6554C0.136765 18.9852 0.34768 19.8949 0.657461 20.6891C0.977129 21.5114 1.4039 22.2085 2.09926 22.9023C2.79462 23.5977 3.49163 24.0245 4.31387 24.3441C5.10974 24.6523 6.01766 24.8649 7.34742 24.9242C8.68046 24.9852 9.10559 25 12.5 25C15.8944 25 16.3195 24.9852 17.6526 24.9242C18.984 24.8632 19.8919 24.6523 20.6861 24.3441C21.5084 24.0245 22.2054 23.5977 22.9007 22.9023C23.5961 22.2068 24.0229 21.5098 24.3425 20.6891C24.6523 19.8932 24.8632 18.9852 24.9242 17.6554C24.9852 16.3223 25 15.8971 25 12.5008C25 9.10619 24.9852 8.68104 24.9242 7.3479C24.8632 6.01806 24.6523 5.10843 24.3425 4.31415C24.0229 3.49186 23.5961 2.79481 22.9007 2.0994C22.2054 1.40399 21.5084 0.977194 20.6861 0.657505C19.8919 0.347703 18.9823 0.136774 17.6526 0.0758024C16.3195 0.0148308 15.8944 0 12.5 0Z" fill="#555555"/>
<path d="M12.5001 6.08057C8.95575 6.08057 6.08203 8.95447 6.08203 12.4991C6.08203 16.0437 8.95575 18.9176 12.5001 18.9176C16.0445 18.9176 18.9182 16.0437 18.9182 12.4991C18.9182 8.95447 16.0445 6.08057 12.5001 6.08057ZM12.5001 16.6666C10.1998 16.6666 8.33454 14.8012 8.33454 12.5007C8.33454 10.2003 10.1998 8.33487 12.5001 8.33487C14.8004 8.33487 16.6657 10.2003 16.6657 12.5007C16.6657 14.8012 14.8004 16.6666 12.5001 16.6666Z" fill="#555555"/>
<path d="M20.6708 5.82721C20.6708 6.65609 20.0002 7.32678 19.1713 7.32678C18.3425 7.32678 17.6719 6.65444 17.6719 5.82721C17.6719 4.99832 18.3442 4.32764 19.1713 4.32764C19.9985 4.32764 20.6708 4.99997 20.6708 5.82721Z" fill="#555555"/>
</svg>
