<svg width="26" height="22" viewBox="0 0 26 22" fill="none" xmlns="http://www.w3.org/2000/svg">
<path d="M25.7143 18.7857V20.9286C25.7143 21.5145 25.2288 22 24.6429 22H1.07143C0.485491 22 0 21.5145 0 20.9286V18.7857C0 18.1998 0.485491 17.7143 1.07143 17.7143H24.6429C25.2288 17.7143 25.7143 18.1998 25.7143 18.7857ZM25.7143 10.2143V12.3571C25.7143 12.9431 25.2288 13.4286 24.6429 13.4286H1.07143C0.485491 13.4286 0 12.9431 0 12.3571V10.2143C0 9.62835 0.485491 9.14286 1.07143 9.14286H24.6429C25.2288 9.14286 25.7143 9.62835 25.7143 10.2143ZM25.7143 1.64286V3.78571C25.7143 4.37165 25.2288 4.85714 24.6429 4.85714H1.07143C0.485491 4.85714 0 4.37165 0 3.78571V1.64286C0 1.05692 0.485491 0.571428 1.07143 0.571428H24.6429C25.2288 0.571428 25.7143 1.05692 25.7143 1.64286Z" fill="#A1A1A1"/>
</svg>
