<svg width="37" height="32" viewBox="0 0 37 32" fill="none" xmlns="http://www.w3.org/2000/svg">
<g filter="url(#filter0_dii_106_66)">
<path d="M31.2641 19.7857V21.9286C31.2641 22.5145 30.7786 23 30.1927 23H6.62123C6.0353 23 5.5498 22.5145 5.5498 21.9286V19.7857C5.5498 19.1998 6.0353 18.7143 6.62123 18.7143H30.1927C30.7786 18.7143 31.2641 19.1998 31.2641 19.7857ZM31.2641 11.2143V13.3571C31.2641 13.9431 30.7786 14.4286 30.1927 14.4286H6.62123C6.0353 14.4286 5.5498 13.9431 5.5498 13.3571V11.2143C5.5498 10.6283 6.0353 10.1429 6.62123 10.1429H30.1927C30.7786 10.1429 31.2641 10.6283 31.2641 11.2143ZM31.2641 2.64286V4.78571C31.2641 5.37165 30.7786 5.85714 30.1927 5.85714H6.62123C6.0353 5.85714 5.5498 5.37165 5.5498 4.78571V2.64286C5.5498 2.05692 6.0353 1.57143 6.62123 1.57143H30.1927C30.7786 1.57143 31.2641 2.05692 31.2641 2.64286Z" fill="#A1A1A1"/>
</g>
<defs>
<filter id="filter0_dii_106_66" x="0.549805" y="0.571289" width="35.7144" height="31.4287" filterUnits="userSpaceOnUse" color-interpolation-filters="sRGB">
<feFlood flood-opacity="0" result="BackgroundImageFix"/>
<feColorMatrix in="SourceAlpha" type="matrix" values="0 0 0 0 0 0 0 0 0 0 0 0 0 0 0 0 0 0 127 0" result="hardAlpha"/>
<feOffset dy="4"/>
<feGaussianBlur stdDeviation="2.5"/>
<feComposite in2="hardAlpha" operator="out"/>
<feColorMatrix type="matrix" values="0 0 0 0 0 0 0 0 0 0 0 0 0 0 0 0 0 0 0.05 0"/>
<feBlend mode="normal" in2="BackgroundImageFix" result="effect1_dropShadow_106_66"/>
<feBlend mode="normal" in="SourceGraphic" in2="effect1_dropShadow_106_66" result="shape"/>
<feColorMatrix in="SourceAlpha" type="matrix" values="0 0 0 0 0 0 0 0 0 0 0 0 0 0 0 0 0 0 127 0" result="hardAlpha"/>
<feOffset dx="5" dy="5"/>
<feGaussianBlur stdDeviation="2.5"/>
<feComposite in2="hardAlpha" operator="arithmetic" k2="-1" k3="1"/>
<feColorMatrix type="matrix" values="0 0 0 0 0 0 0 0 0 0 0 0 0 0 0 0 0 0 0.1 0"/>
<feBlend mode="normal" in2="shape" result="effect2_innerShadow_106_66"/>
<feColorMatrix in="SourceAlpha" type="matrix" values="0 0 0 0 0 0 0 0 0 0 0 0 0 0 0 0 0 0 127 0" result="hardAlpha"/>
<feOffset dx="-1" dy="-1"/>
<feGaussianBlur stdDeviation="1"/>
<feComposite in2="hardAlpha" operator="arithmetic" k2="-1" k3="1"/>
<feColorMatrix type="matrix" values="0 0 0 0 1 0 0 0 0 1 0 0 0 0 1 0 0 0 0.1 0"/>
<feBlend mode="normal" in2="effect2_innerShadow_106_66" result="effect3_innerShadow_106_66"/>
</filter>
</defs>
</svg>
