<svg width="30" height="30" viewBox="0 0 30 30" fill="none" xmlns="http://www.w3.org/2000/svg">
<path d="M15.2675 30C13.8013 29.9909 12.3351 29.7453 10.8962 29.3815C8.91087 28.8812 7.01661 28.099 5.50485 26.6983C3.92024 25.2248 2.63615 23.4148 1.61617 21.5138C0.468685 19.3763 -0.0959435 16.9842 0.0133403 14.5648C0.277443 8.85272 2.94579 4.51412 7.9091 1.70358C9.3389 0.894068 10.9873 0.430198 12.5992 0.0390866C13.2094 -0.115539 14.1018 0.211901 14.6483 0.612107C15.3677 1.13965 15.1491 1.95826 14.7575 2.72229C12.9635 6.19681 12.9453 9.65314 15.1765 12.9457C17.2438 15.9928 21.943 17.8301 26.1322 15.5835C26.5147 15.3834 26.8789 15.0559 27.2797 15.0195C27.9445 14.9559 28.8643 14.8376 29.2377 15.2014C29.7203 15.6744 30.121 16.6658 29.9662 17.2934C28.5 23.3693 24.0831 28.5629 17.7629 29.7908C16.9341 29.9363 16.0963 30 15.2675 30ZM3.69256 14.2555C3.65613 20.1495 6.37912 23.7422 11.7067 26.0616C15.65 27.7807 21.524 25.7069 23.9647 22.7508C24.4929 22.105 25.1759 21.1682 25.0484 20.5042C24.8208 19.2854 23.5458 19.8493 22.7171 19.8493C14.3751 19.8766 9.6121 12.1453 10.4044 6.16043C10.459 5.74203 10.1858 4.99619 9.90352 4.89614C9.4846 4.75971 8.79248 4.92342 8.43731 5.22357C5.47753 7.68848 3.51953 10.6718 3.69256 14.2555Z" fill="#A1A1A1"/>
</svg>
