<svg width="38" height="38" viewBox="0 0 38 38" fill="none" xmlns="http://www.w3.org/2000/svg">
<g filter="url(#filter0_di_86_144)">
<path d="M19.2675 30C17.8013 29.9909 16.3351 29.7453 14.8962 29.3815C12.9109 28.8812 11.0166 28.099 9.50485 26.6983C7.92024 25.2248 6.63615 23.4148 5.61617 21.5138C4.46868 19.3763 3.90406 16.9842 4.01334 14.5648C4.27744 8.85272 6.94579 4.51412 11.9091 1.70358C13.3389 0.894068 14.9873 0.430198 16.5992 0.0390866C17.2094 -0.115539 18.1018 0.211901 18.6483 0.612107C19.3677 1.13965 19.1491 1.95826 18.7575 2.72229C16.9635 6.19681 16.9453 9.65314 19.1765 12.9457C21.2438 15.9928 25.943 17.8301 30.1322 15.5835C30.5147 15.3834 30.8789 15.0559 31.2797 15.0195C31.9445 14.9559 32.8643 14.8376 33.2377 15.2014C33.7203 15.6744 34.121 16.6658 33.9662 17.2934C32.5 23.3693 28.0831 28.5629 21.7629 29.7908C20.9341 29.9363 20.0963 30 19.2675 30ZM7.69256 14.2555C7.65613 20.1495 10.3791 23.7422 15.7067 26.0616C19.65 27.7807 25.524 25.7069 27.9647 22.7508C28.4929 22.105 29.1759 21.1682 29.0484 20.5042C28.8208 19.2854 27.5458 19.8493 26.7171 19.8493C18.3751 19.8766 13.6121 12.1453 14.4044 6.16043C14.459 5.74203 14.1858 4.99619 13.9035 4.89614C13.4846 4.75971 12.7925 4.92342 12.4373 5.22357C9.47753 7.68848 7.51953 10.6718 7.69256 14.2555Z" fill="#A1A1A1"/>
</g>
<defs>
<filter id="filter0_di_86_144" x="0" y="0" width="39" height="38" filterUnits="userSpaceOnUse" color-interpolation-filters="sRGB">
<feFlood flood-opacity="0" result="BackgroundImageFix"/>
<feColorMatrix in="SourceAlpha" type="matrix" values="0 0 0 0 0 0 0 0 0 0 0 0 0 0 0 0 0 0 127 0" result="hardAlpha"/>
<feOffset dy="4"/>
<feGaussianBlur stdDeviation="2"/>
<feComposite in2="hardAlpha" operator="out"/>
<feColorMatrix type="matrix" values="0 0 0 0 0 0 0 0 0 0 0 0 0 0 0 0 0 0 0.15 0"/>
<feBlend mode="normal" in2="BackgroundImageFix" result="effect1_dropShadow_86_144"/>
<feBlend mode="normal" in="SourceGraphic" in2="effect1_dropShadow_86_144" result="shape"/>
<feColorMatrix in="SourceAlpha" type="matrix" values="0 0 0 0 0 0 0 0 0 0 0 0 0 0 0 0 0 0 127 0" result="hardAlpha"/>
<feOffset dx="5" dy="5"/>
<feGaussianBlur stdDeviation="2.5"/>
<feComposite in2="hardAlpha" operator="arithmetic" k2="-1" k3="1"/>
<feColorMatrix type="matrix" values="0 0 0 0 0 0 0 0 0 0 0 0 0 0 0 0 0 0 0.1 0"/>
<feBlend mode="normal" in2="shape" result="effect2_innerShadow_86_144"/>
</filter>
</defs>
</svg>
