<svg width="30" height="30" viewBox="0 0 30 30" fill="none" xmlns="http://www.w3.org/2000/svg">
<path d="M15.126 6C10.158 6 6.12598 10.032 6.12598 15C6.12598 19.968 10.158 24 15.126 24C20.094 24 24.126 19.968 24.126 15C24.126 10.032 20.094 6 15.126 6ZM15.126 21.3C11.643 21.3 8.82598 18.483 8.82598 15C8.82598 11.517 11.643 8.7 15.126 8.7C18.609 8.7 21.426 11.517 21.426 15C21.426 18.483 18.609 21.3 15.126 21.3Z" fill="#A1A1A1"/>
<path d="M15 0L17.5981 4.5H12.4019L15 0Z" fill="#A1A1A1"/>
<path d="M5.12132 3.62132L10.1404 4.96619L6.46618 8.64042L5.12132 3.62132Z" fill="#A1A1A1"/>
<path d="M-8.74228e-08 15L4.5 12.4019L4.5 17.5981L-8.74228e-08 15Z" fill="#A1A1A1"/>
<path d="M3.62136 25.864L4.96622 20.8449L8.64045 24.5191L3.62136 25.864Z" fill="#A1A1A1"/>
<path d="M25.864 3.62132L24.5191 8.64042L20.8449 4.96618L25.864 3.62132Z" fill="#A1A1A1"/>
<path d="M30 15L25.5 17.5981L25.5 12.4019L30 15Z" fill="#A1A1A1"/>
<path d="M15 30L12.4019 25.5L17.5981 25.5L15 30Z" fill="#A1A1A1"/>
<path d="M25.864 25.864L20.8449 24.5191L24.5192 20.8449L25.864 25.864Z" fill="#A1A1A1"/>
</svg>
