<svg width="39" height="38" viewBox="0 0 39 38" fill="none" xmlns="http://www.w3.org/2000/svg">
<g filter="url(#filter0_d_106_26)">
<path d="M19.6758 6C14.7078 6 10.6758 10.032 10.6758 15C10.6758 19.968 14.7078 24 19.6758 24C24.6438 24 28.6758 19.968 28.6758 15C28.6758 10.032 24.6438 6 19.6758 6ZM19.6758 21.3C16.1928 21.3 13.3758 18.483 13.3758 15C13.3758 11.517 16.1928 8.7 19.6758 8.7C23.1588 8.7 25.9758 11.517 25.9758 15C25.9758 18.483 23.1588 21.3 19.6758 21.3Z" fill="#A1A1A1"/>
<path d="M19.5498 0L22.1479 4.5H16.9517L19.5498 0Z" fill="#A1A1A1"/>
<path d="M9.67112 3.62136L14.6902 4.96622L11.016 8.64045L9.67112 3.62136Z" fill="#A1A1A1"/>
<path d="M4.5498 15L9.0498 12.4019L9.0498 17.5981L4.5498 15Z" fill="#A1A1A1"/>
<path d="M8.17116 25.864L9.51602 20.8449L13.1903 24.5192L8.17116 25.864Z" fill="#A1A1A1"/>
<path d="M30.4138 3.62132L29.0689 8.64042L25.3947 4.96618L30.4138 3.62132Z" fill="#A1A1A1"/>
<path d="M34.5498 15L30.0498 17.5981L30.0498 12.4019L34.5498 15Z" fill="#A1A1A1"/>
<path d="M19.5498 30L16.9517 25.5L22.1479 25.5L19.5498 30Z" fill="#A1A1A1"/>
<path d="M30.4138 25.864L25.3947 24.5191L29.069 20.8449L30.4138 25.864Z" fill="#A1A1A1"/>
</g>
<defs>
<filter id="filter0_d_106_26" x="0.549805" y="0" width="38" height="38" filterUnits="userSpaceOnUse" color-interpolation-filters="sRGB">
<feFlood flood-opacity="0" result="BackgroundImageFix"/>
<feColorMatrix in="SourceAlpha" type="matrix" values="0 0 0 0 0 0 0 0 0 0 0 0 0 0 0 0 0 0 127 0" result="hardAlpha"/>
<feOffset dy="4"/>
<feGaussianBlur stdDeviation="2"/>
<feComposite in2="hardAlpha" operator="out"/>
<feColorMatrix type="matrix" values="0 0 0 0 0 0 0 0 0 0 0 0 0 0 0 0 0 0 0.1 0"/>
<feBlend mode="normal" in2="BackgroundImageFix" result="effect1_dropShadow_106_26"/>
<feBlend mode="normal" in="SourceGraphic" in2="effect1_dropShadow_106_26" result="shape"/>
</filter>
</defs>
</svg>
