<svg width="38" height="33" viewBox="0 0 38 33" fill="none" xmlns="http://www.w3.org/2000/svg">
<g filter="url(#filter0_di_84_78)">
<path d="M27.5714 9.14286C27.5714 13.8806 22.298 17.7143 15.7857 17.7143C14.7645 17.7143 13.7768 17.6138 12.8393 17.4464C11.4498 18.4342 9.87612 19.154 8.18527 19.5893C7.73326 19.7065 7.24777 19.7902 6.74554 19.8571C6.72879 19.8571 6.71205 19.8571 6.69531 19.8571C6.4442 19.8571 6.20982 19.6562 6.1596 19.3717C6.09263 19.0536 6.31027 18.8527 6.49442 18.635C7.14732 17.8984 7.88393 17.2455 8.45312 15.856C5.74107 14.2824 4 11.8549 4 9.14286C4 4.40513 9.27344 0.571428 15.7857 0.571428C22.298 0.571428 27.5714 4.40513 27.5714 9.14286ZM34 13.4286C34 16.1574 32.2589 18.5681 29.5469 20.1417C30.1161 21.5312 30.8527 22.1842 31.5056 22.9208C31.6897 23.1384 31.9074 23.3393 31.8404 23.6574C31.7734 23.9587 31.5223 24.1763 31.2545 24.1429C30.7522 24.0759 30.2667 23.9922 29.8147 23.875C28.1239 23.4397 26.5502 22.7199 25.1607 21.7321C24.2232 21.8996 23.2355 22 22.2143 22C19.1842 22 16.4051 21.1629 14.3125 19.7902C14.798 19.8237 15.3002 19.8571 15.7857 19.8571C19.385 19.8571 22.7835 18.8192 25.3783 16.9442C28.1741 14.9018 29.7143 12.1395 29.7143 9.14286C29.7143 8.27232 29.5804 7.41853 29.3292 6.59821C32.1585 8.15513 34 10.6328 34 13.4286Z" fill="#A1A1A1"/>
</g>
<defs>
<filter id="filter0_di_84_78" x="0" y="0.571426" width="38" height="31.6049" filterUnits="userSpaceOnUse" color-interpolation-filters="sRGB">
<feFlood flood-opacity="0" result="BackgroundImageFix"/>
<feColorMatrix in="SourceAlpha" type="matrix" values="0 0 0 0 0 0 0 0 0 0 0 0 0 0 0 0 0 0 127 0" result="hardAlpha"/>
<feOffset dy="4"/>
<feGaussianBlur stdDeviation="2"/>
<feComposite in2="hardAlpha" operator="out"/>
<feColorMatrix type="matrix" values="0 0 0 0 0 0 0 0 0 0 0 0 0 0 0 0 0 0 0.15 0"/>
<feBlend mode="normal" in2="BackgroundImageFix" result="effect1_dropShadow_84_78"/>
<feBlend mode="normal" in="SourceGraphic" in2="effect1_dropShadow_84_78" result="shape"/>
<feColorMatrix in="SourceAlpha" type="matrix" values="0 0 0 0 0 0 0 0 0 0 0 0 0 0 0 0 0 0 127 0" result="hardAlpha"/>
<feOffset dx="5" dy="4"/>
<feGaussianBlur stdDeviation="2"/>
<feComposite in2="hardAlpha" operator="arithmetic" k2="-1" k3="1"/>
<feColorMatrix type="matrix" values="0 0 0 0 0 0 0 0 0 0 0 0 0 0 0 0 0 0 0.1 0"/>
<feBlend mode="normal" in2="shape" result="effect2_innerShadow_84_78"/>
</filter>
</defs>
</svg>
