<svg width="39" height="33" viewBox="0 0 39 33" fill="none" xmlns="http://www.w3.org/2000/svg">
<g filter="url(#filter0_di_106_67)">
<path d="M28.1212 9.14286C28.1212 13.8806 22.8478 17.7143 16.3355 17.7143C15.3143 17.7143 14.3266 17.6138 13.3891 17.4464C11.9996 18.4342 10.4259 19.154 8.73507 19.5893C8.28306 19.7065 7.79757 19.7902 7.29534 19.8571C7.2786 19.8571 7.26186 19.8571 7.24512 19.8571C6.994 19.8571 6.75963 19.6562 6.7094 19.3717C6.64244 19.0536 6.86007 18.8527 7.04422 18.635C7.69713 17.8984 8.43373 17.2455 9.00293 15.856C6.29088 14.2824 4.5498 11.8549 4.5498 9.14286C4.5498 4.40513 9.82324 0.571428 16.3355 0.571428C22.8478 0.571428 28.1212 4.40513 28.1212 9.14286ZM34.5498 13.4286C34.5498 16.1574 32.8087 18.5681 30.0967 20.1417C30.6659 21.5312 31.4025 22.1842 32.0554 22.9208C32.2395 23.1384 32.4572 23.3393 32.3902 23.6574C32.3232 23.9587 32.0721 24.1763 31.8043 24.1429C31.302 24.0759 30.8165 23.9922 30.3645 23.875C28.6737 23.4397 27.1 22.7199 25.7105 21.7321C24.773 21.8996 23.7853 22 22.7641 22C19.734 22 16.9549 21.1629 14.8623 19.7902C15.3478 19.8237 15.85 19.8571 16.3355 19.8571C19.9349 19.8571 23.3333 18.8192 25.9282 16.9442C28.7239 14.9018 30.2641 12.1395 30.2641 9.14286C30.2641 8.27232 30.1302 7.41853 29.879 6.59821C32.7083 8.15513 34.5498 10.6328 34.5498 13.4286Z" fill="#A1A1A1"/>
</g>
<defs>
<filter id="filter0_di_106_67" x="0.549805" y="0.571289" width="38" height="31.605" filterUnits="userSpaceOnUse" color-interpolation-filters="sRGB">
<feFlood flood-opacity="0" result="BackgroundImageFix"/>
<feColorMatrix in="SourceAlpha" type="matrix" values="0 0 0 0 0 0 0 0 0 0 0 0 0 0 0 0 0 0 127 0" result="hardAlpha"/>
<feOffset dy="4"/>
<feGaussianBlur stdDeviation="2"/>
<feComposite in2="hardAlpha" operator="out"/>
<feColorMatrix type="matrix" values="0 0 0 0 0 0 0 0 0 0 0 0 0 0 0 0 0 0 0.15 0"/>
<feBlend mode="normal" in2="BackgroundImageFix" result="effect1_dropShadow_106_67"/>
<feBlend mode="normal" in="SourceGraphic" in2="effect1_dropShadow_106_67" result="shape"/>
<feColorMatrix in="SourceAlpha" type="matrix" values="0 0 0 0 0 0 0 0 0 0 0 0 0 0 0 0 0 0 127 0" result="hardAlpha"/>
<feOffset dx="2" dy="2"/>
<feGaussianBlur stdDeviation="2.5"/>
<feComposite in2="hardAlpha" operator="arithmetic" k2="-1" k3="1"/>
<feColorMatrix type="matrix" values="0 0 0 0 0 0 0 0 0 0 0 0 0 0 0 0 0 0 0.1 0"/>
<feBlend mode="normal" in2="shape" result="effect2_innerShadow_106_67"/>
</filter>
</defs>
</svg>
