<svg width="25" height="25" viewBox="0 0 25 25" fill="none" xmlns="http://www.w3.org/2000/svg">
<path d="M25 12.5C25 19.4041 19.4046 25 12.5012 25C5.59776 25 0 19.4041 0 12.5C0 5.59592 5.59539 0 12.4988 0C19.4022 0 25 5.59592 25 12.5Z" fill="#555555"/>
<path d="M16.6823 7.61768H8.31886C6.67846 7.61768 5.34668 8.94721 5.34668 10.5901V14.771C5.34668 16.4116 6.67609 17.7435 8.31886 17.7435H16.6823C18.3227 17.7435 19.6544 16.414 19.6544 14.771V10.5901C19.6544 8.94958 18.3227 7.61768 16.6823 7.61768ZM14.6715 12.8836L10.7593 14.7497C10.6548 14.7995 10.5337 14.7236 10.5337 14.6072V10.7587C10.5337 10.64 10.6572 10.5664 10.7616 10.6186L14.6739 12.6011C14.7926 12.6604 14.7902 12.8266 14.6715 12.8836Z" fill="white"/>
</svg>
